#!OML:ASF H:\BabyWalks\Project 1\Capture day 1\Session 1\baby.ASF
:FULLY-SPECIFIED
:DEGREES
662
root -31.2135 17.7069 -3.01614 -153.953 77.6733 -148.115
lowerback 12.091 0.883736 1.40129
upperback 8.2554 1.79483 1.29552
thorax 1.86184 1.13434 0.382956
lowerneck -8.17909 -2.89784 1.4758
upperneck -1.51163 -3.94138 3.33918
head 0.93355 -1.87724 0.660544
rclavicle 9.93923e-017 7.95139e-015
rhumerus -34.8667 -3.23291 -42.603
rradius 49.7393
rwrist -14.0696
rhand -17.2061 -23.0008
rfingers 7.12502
rthumb 9.0365 -52.7873
lclavicle 9.93923e-017 7.95139e-015
lhumerus -37.3613 4.60196 51.9487
lradius 42.8738
lwrist -5.35048
lhand -7.17326 -0.381972
lfingers 7.12502
lthumb 18.7042 28.7388
rfemur 11.5157 4.82809 26.5034
rtibia 4.31489
rfoot -9.86975 -23.0869
rtoes -1.3139
lfemur -6.11181 -13.3324 -6.5943
ltibia 26.1244
lfoot -22.5125 -3.41136
ltoes 11.2145
663
root -31.2289 17.7075 -3.00775 -153.009 77.9819 -147.109
lowerback 12.1082 0.889316 1.27109
upperback 8.23718 1.78643 1.24417
thorax 1.83105 1.12424 0.402515
lowerneck -8.24497 -2.73262 1.50529
upperneck -1.45064 -3.72757 3.42672
head 0.963761 -1.76663 0.688559
rclavicle 7.55382e-015 4.77083e-015
rhumerus -31.8663 0.0662085 -45.3674
rradius 51.2417
rwrist -14.0525
rhand -17.141 -22.6811
rfingers 7.12502
rthumb 9.0993 -52.4649
lclavicle 7.55382e-015 4.77083e-015
lhumerus -35.1731 1.44148 54.6042
lradius 43.4593
lwrist -4.85166
lhand -7.41253 -0.584703
lfingers 7.12502
lthumb 18.474 28.5581
rfemur 11.266 5.18207 26.5839
rtibia 4.74888
rfoot -10.1675 -23.1228
rtoes -0.716687
lfemur -5.91876 -13.2625 -6.55467
ltibia 26.0119
lfoot -22.4768 -3.13692
ltoes 11.0258
664
root -31.2437 17.7076 -3.00035 -151.929 78.3187 -145.94
lowerback 12.1242 0.884559 1.13134
upperback 8.22729 1.76383 1.21348
thorax 1.80885 1.10649 0.450558
lowerneck -8.28906 -2.54998 1.50397
upperneck -1.39225 -3.48764 3.51146
head 0.989656 -1.64335 0.722244
rclavicle -4.63168e-014 1.51076e-014
rhumerus -28.8718 3.56127 -47.7569
rradius 52.8019
rwrist -14.0954
rhand -17.1229 -22.4613
rfingers 7.12502
rthumb 9.11679 -52.2443
lclavicle -4.63168e-014 1.51076e-014
lhumerus -33.1199 -1.85407 57.136
lradius 44.0894
lwrist -4.2816
lhand -7.59789 -0.706064
lfingers 7.12502
lthumb 18.2957 28.4535
rfemur 11.0828 5.57211 26.6678
rtibia 5.10205
rfoot -10.437 -23.1658
rtoes -0.0394034
lfemur -5.67813 -13.1763 -6.52283
ltibia 25.9
lfoot -22.4632 -2.84965
ltoes 10.8798
665
root -31.2579 17.707 -2.99409 -150.644 78.6789 -144.539
lowerback 12.1645 0.875348 0.996065
upperback 8.20125 1.73528 1.20501
thorax 1.75611 1.08491 0.518813
lowerneck -8.26472 -2.35372 1.47891
upperneck -1.33766 -3.22644 3.58858
head 1.00249 -1.51075 0.759196
rclavicle 2.38542e-014 -1.19271e-015
rhumerus -25.8921 7.1855 -49.758
rradius 54.3717
rwrist -14.1791
rhand -17.1597 -22.3166
rfingers 7.12502
rthumb 9.08126 -52.1011
lclavicle 2.38542e-014 -1.19271e-015
lhumerus -31.2015 -5.24969 59.5339
lradius 44.7673
lwrist -3.62598
lhand -7.71497 -0.726572
lfingers 7.12502
lthumb 18.1831 28.4435
rfemur 10.9649 5.99978 26.7659
rtibia 5.37834
rfoot -10.6817 -23.2118
rtoes 0.716382
lfemur -5.39143 -13.0758 -6.48878
ltibia 25.7929
lfoot -22.473 -2.5428
ltoes 10.7673
666
root -31.2716 17.7059 -2.98897 -149.141 79.0577 -142.9
lowerback 12.1389 0.865529 0.878261
upperback 8.22512 1.70888 1.20905
thorax 1.79181 1.0664 0.592912
lowerneck -8.22006 -2.14883 1.46426
upperneck -1.33243 -2.95146 3.64746
head 0.995061 -1.37253 0.789604
rclavicle -2.16675e-014 -3.97569e-016
rhumerus -22.8246 10.7834 -51.3728
rradius 55.8944
rwrist -14.265
rhand -17.2206 -22.2755
rfingers 7.12502
rthumb 9.02248 -52.0625
lclavicle -2.16675e-014 -3.97569e-016
lhumerus -29.2694 -8.64421 61.7655
lradius 45.4678
lwrist -2.85779
lhand -7.73545 -0.657715
lfingers 7.12502
lthumb 18.1634 28.5142
rfemur 10.9031 6.46176 26.8739
rtibia 5.58166
rfoot -10.9003 -23.2569
rtoes 1.50301
lfemur -5.06838 -12.9697 -6.45456
ltibia 25.6944
lfoot -22.5126 -2.21906
ltoes 10.6777
667
root -31.2851 17.7042 -2.98486 -147.4 79.4452 -141.01
lowerback 12.1102 0.863893 0.78694
upperback 8.2552 1.69623 1.21998
thorax 1.83628 1.05584 0.658112
lowerneck -8.16048 -1.94395 1.46837
upperneck -1.32988 -2.67761 3.69191
head 0.983389 -1.23548 0.812349
rclavicle 0 9.54166e-015
rhumerus -19.7083 14.3085 -52.6176
rradius 57.341
rwrist -14.3396
rhand -17.3096 -22.3687
rfingers 7.12502
rthumb 8.93655 -52.1594
lclavicle 0 9.54166e-015
lhumerus -27.352 -12.0627 63.8228
lradius 46.2185
lwrist -1.98173
lhand -7.69384 -0.383171
lfingers 7.12502
lthumb 18.2034 28.785
rfemur 10.8822 6.95955 26.9948
rtibia 5.72905
rfoot -11.0937 -23.308
rtoes 2.295
lfemur -4.72226 -12.8565 -6.41673
ltibia 25.6057
lfoot -22.5762 -1.87856
ltoes 10.5989
668
root -31.2985 17.7018 -2.98167 -145.412 79.8307 -138.855
lowerback 12.0923 0.873422 0.735388
upperback 8.28555 1.70253 1.22519
thorax 1.87648 1.05655 0.69288
lowerneck -8.07195 -1.74251 1.52901
upperneck -1.32595 -2.41246 3.71715
head 0.965899 -1.10365 0.819329
rclavicle 6.95746e-015 7.95139e-016
rhumerus -16.5547 17.6928 -53.5387
rradius 58.6916
rwrist -14.4082
rhand -17.406 -22.5444
rfingers 7.12502
rthumb 8.84353 -52.3391
lclavicle 6.95746e-015 7.95139e-016
lhumerus -25.4419 -15.4857 65.6744
lradius 47.0396
lwrist -1.01865
lhand -7.6346 0.00320678
lfingers 7.12502
lthumb 18.2604 29.1661
rfemur 10.8983 7.46499 27.1269
rtibia 5.83868
rfoot -11.2552 -23.3437
rtoes 3.04892
lfemur -4.35221 -12.7382 -6.37353
ltibia 25.5272
lfoot -22.6588 -1.53106
ltoes 10.522
